# xmcd CD database file
#
# Track frame offsets:
#	150
#	17520
#	34350
#	61872
#
# Disc length: 1187 seconds
#
# Revision: 2
# Processed by: cddbd v1.4b41PL1 Copyright (c) Steve Scherf et al.
# Submitted via: Feurio! 1.52 - http://www.feurio.com
#
DISCID=2904a104
DTITLE=No Comment - No Comment
DYEAR=1900
DGENRE=
TTITLE0=Luden Pudel
TTITLE1=Rinderwahn
TTITLE2=Klassischer Till
TTITLE3=Ride On
EXTD=
EXTT0=
EXTT1=
EXTT2=
EXTT3=
PLAYORDER=
